<svg width="51" height="51" viewBox="0 0 51 51" fill="none" xmlns="http://www.w3.org/2000/svg">
<path d="M18.025 21.2512L18.0753 12.3549C18.0853 10.5853 18.8048 8.89043 20.0756 7.64303C21.3463 6.39563 23.0641 5.69792 24.8512 5.70341C26.6383 5.70889 28.3482 6.4171 29.6048 7.67225C30.8613 8.92741 31.5616 10.6267 31.5516 12.3962L31.5013 21.2925M38.2646 16.865L40.1742 43.3888C40.1963 43.6945 40.1543 44.0015 40.051 44.2907C39.9476 44.5798 39.7851 44.8448 39.5735 45.0691C39.362 45.2934 39.106 45.4721 38.8217 45.5939C38.5374 45.7158 38.2308 45.7782 37.9213 45.7773L11.328 45.6957C11.0185 45.6947 10.7127 45.6304 10.4298 45.5068C10.1468 45.3832 9.89291 45.203 9.68392 44.9774C9.47492 44.7519 9.31538 44.4859 9.21529 44.1961C9.1152 43.9063 9.07673 43.599 9.10229 43.2935L11.312 16.7824L38.2646 16.865Z" stroke="#1B89CD" stroke-width="4" stroke-linecap="round" stroke-linejoin="round"/>
</svg>
