<svg width="40" height="40" viewBox="0 0 40 40" fill="none" xmlns="http://www.w3.org/2000/svg">
<g clip-path="url(#clip0_3322_3215)">
<path d="M16.4721 9.06101C16.4718 7.79936 16.7935 6.55851 17.4068 5.45596C18.0201 4.35341 18.9047 3.42564 19.9768 2.76052C21.0488 2.0954 22.273 1.71494 23.5332 1.65516C24.7934 1.59538 26.048 1.85827 27.1783 2.41892C28.3083 1.85878 29.5626 1.59626 30.8224 1.6562C32.0823 1.71614 33.3059 2.09656 34.3777 2.76146C35.4495 3.42636 36.3338 4.35375 36.9471 5.45585C37.5604 6.55795 37.8823 7.79832 37.8824 9.05957C37.8825 10.3208 37.5607 11.5612 36.9476 12.6634C36.3345 13.7656 35.4502 14.6931 34.3785 15.3581C33.3069 16.0232 32.0832 16.4038 30.8234 16.4639C29.5636 16.524 28.3093 16.2616 27.1792 15.7017C26.049 16.2625 24.7944 16.5255 23.5342 16.4659C22.2739 16.4063 21.0498 16.026 19.9776 15.361C18.9054 14.696 18.0207 13.7684 17.4073 12.6659C16.7939 11.5635 16.472 10.3227 16.4721 9.06101ZM30.0615 13.1582C30.1966 13.1714 30.3339 13.178 30.4733 13.178C31.0307 13.1767 31.582 13.0624 32.0939 12.8418C32.6058 12.6212 33.0675 12.299 33.4512 11.8946C33.8349 11.4903 34.1325 11.0123 34.326 10.4896C34.5195 9.9669 34.6048 9.41035 34.5769 8.85367C34.5489 8.29699 34.4083 7.75178 34.1634 7.25106C33.9186 6.75035 33.5746 6.30455 33.1524 5.94069C32.7302 5.57682 32.2385 5.30246 31.7071 5.13422C31.1757 4.96599 30.6157 4.90738 30.061 4.96195C30.8669 6.17674 31.2967 7.6022 31.2966 9.06001C31.2969 10.5178 30.8673 11.9433 30.0615 13.1582ZM13.8952 21.8267C13.6247 21.826 13.3568 21.8786 13.1067 21.9815C12.8566 22.0844 12.6292 22.2356 12.4375 22.4264L9.06103 25.8033L9.06145 32.1218L18.3301 32.1212L27.8884 29.7322L33.706 27.2478C33.9042 27.1407 34.0558 26.9642 34.1318 26.7522C34.2079 26.5402 34.2029 26.3076 34.118 26.0989C34.0331 25.8903 33.8741 25.7204 33.6716 25.6218C33.4691 25.5231 33.2373 25.5027 33.0207 25.5645L32.9877 25.5727L22.4263 28.003L16.4734 28.0034L16.4732 24.7091L21.6206 24.7087C22.0028 24.7087 22.3694 24.5568 22.6397 24.2865C22.91 24.0162 23.0618 23.6496 23.0618 23.2674C23.0617 22.8851 22.9099 22.5185 22.6396 22.2483C22.3692 21.978 22.0026 21.8262 21.6204 21.8262L13.8952 21.8267ZM26.3347 23.7234L32.1853 22.3773C32.8085 22.2134 33.4609 22.1945 34.0924 22.322C34.724 22.4495 35.318 22.7201 35.8287 23.1129C36.3394 23.5057 36.7534 24.0103 37.0387 24.588C37.324 25.1657 37.4732 25.8011 37.4747 26.4454C37.4741 27.2276 37.2559 27.9941 36.8447 28.6594C36.4334 29.3247 35.8452 29.8625 35.1458 30.2126L35.1014 30.2357L28.9411 32.8634L18.7355 35.4155L0.00226807 35.4168L0.00146598 23.4748L6.73178 23.4744L10.1115 20.0941C10.6095 19.5978 11.2004 19.2044 11.8504 18.9364C12.5004 18.6685 13.1968 18.5312 13.8999 18.5324L21.6202 18.5319C22.2806 18.5317 22.9337 18.6697 23.5376 18.937C24.1416 19.2043 24.6829 19.5949 25.1269 20.0838C25.5708 20.5727 25.9077 21.1491 26.1157 21.7759C26.3237 22.4027 26.3983 23.0661 26.3347 23.7234ZM5.76676 26.7687L3.29602 26.7689L3.29638 32.1222L5.76712 32.122L5.76676 26.7687Z" fill="#09A046"/>
</g>
<defs>
<clipPath id="clip0_3322_3215">
<rect y="0.00292969" width="39.532" height="39.532" rx="5" fill="white"/>
</clipPath>
</defs>
</svg>
